<svg xmlns="http://www.w3.org/2000/svg" xmlns:xlink="http://www.w3.org/1999/xlink" width="18" height="12" viewBox="0 0 18 12"><defs><path id="v5wka" d="M175.3 813.77c0 .05 0 .1-.02.15l-1.11 4.4a.5.5 0 0 1-.49.38l-6.66.03h-6.66a.5.5 0 0 1-.5-.38l-1.1-4.41a.5.5 0 0 1-.02-.16 1.05 1.05 0 0 1-.74-1c0-.58.48-1.05 1.06-1.05a1.04 1.04 0 1 1 .67 1.86l1.4 1.4a1.9 1.9 0 0 0 2.84-.2l2.28-3c-.2-.19-.31-.45-.31-.74 0-.58.48-1.05 1.06-1.05.58 0 1.06.47 1.06 1.05 0 .28-.11.54-.3.72l2.28 3.01a1.9 1.9 0 0 0 2.84.2l1.4-1.38a1.04 1.04 0 0 1 .66-1.87c.58 0 1.06.47 1.06 1.05 0 .46-.3.85-.7 1zm-1.24 7.73a.5.5 0 0 1-.5.5H160.5a.5.5 0 0 1-.5-.5v-1.2c0-.28.22-.5.5-.5h13.06c.27 0 .5.22.5.5z"/></defs><g><g transform="translate(-158 -810)"><use fill="#f3bb62" xlink:href="#v5wka"/></g></g></svg>